<mxfile host="65bd71144e">
    <diagram id="gM2w_FHCnjjO-cwRjM-V" name="Page-1">
        <mxGraphModel dx="1572" dy="642" grid="1" gridSize="10" guides="1" tooltips="1" connect="1" arrows="1" fold="1" page="1" pageScale="1" pageWidth="850" pageHeight="1100" background="#ffffff" math="0" shadow="0">
            <root>
                <mxCell id="0"/>
                <mxCell id="1" parent="0"/>
                <mxCell id="2" value="Операция" style="rounded=0;whiteSpace=wrap;html=1;fillColor=#FF66FF;strokeColor=#000000;strokeWidth=2;fontSize=18;fontStyle=1;fontColor=#000000;" vertex="1" parent="1">
                    <mxGeometry y="120" width="170" height="80" as="geometry"/>
                </mxCell>
                <mxCell id="3" value="Обикновени двоични дървета" style="rounded=0;whiteSpace=wrap;html=1;fillColor=#FF66FF;strokeColor=#000000;strokeWidth=2;fontSize=18;fontStyle=1;fontColor=#000000;" vertex="1" parent="1">
                    <mxGeometry x="170" y="120" width="170" height="80" as="geometry"/>
                </mxCell>
                <mxCell id="4" value="Балансирани двоични дървета" style="rounded=0;whiteSpace=wrap;html=1;fillColor=#FF66FF;strokeColor=#000000;strokeWidth=2;fontSize=18;fontStyle=1;fontColor=#000000;" vertex="1" parent="1">
                    <mxGeometry x="340" y="120" width="170" height="80" as="geometry"/>
                </mxCell>
                <mxCell id="5" value="добавяне на елемент" style="rounded=0;whiteSpace=wrap;html=1;fillColor=#FFFFFF;strokeColor=#000000;strokeWidth=2;fontSize=17;fontStyle=1;fontColor=#000000;" vertex="1" parent="1">
                    <mxGeometry y="200" width="170" height="60" as="geometry"/>
                </mxCell>
                <mxCell id="6" value="&lt;span style=&quot;font-size: 17px;&quot;&gt;Θ(N)&lt;/span&gt;" style="rounded=0;whiteSpace=wrap;html=1;fillColor=#FFFFFF;strokeColor=#000000;strokeWidth=2;fontSize=17;fontStyle=1;fontColor=#000000;" vertex="1" parent="1">
                    <mxGeometry x="170" y="200" width="170" height="60" as="geometry"/>
                </mxCell>
                <mxCell id="7" value="&lt;span style=&quot;font-size: 17px;&quot;&gt;Θ(N)&lt;/span&gt;" style="rounded=0;whiteSpace=wrap;html=1;fillColor=#FFFFFF;strokeColor=#000000;strokeWidth=2;fontSize=17;fontStyle=1;fontColor=#000000;" vertex="1" parent="1">
                    <mxGeometry x="340" y="200" width="170" height="60" as="geometry"/>
                </mxCell>
                <mxCell id="17" value="премахване на елемент" style="rounded=0;whiteSpace=wrap;html=1;fillColor=#FFFFFF;strokeColor=#000000;strokeWidth=2;fontSize=17;fontStyle=1;fontColor=#000000;" vertex="1" parent="1">
                    <mxGeometry y="260" width="170" height="60" as="geometry"/>
                </mxCell>
                <mxCell id="18" value="&lt;span style=&quot;font-size: 17px;&quot;&gt;Θ(N)&lt;/span&gt;" style="rounded=0;whiteSpace=wrap;html=1;fillColor=#FFFFFF;strokeColor=#000000;strokeWidth=2;fontSize=17;fontStyle=1;fontColor=#000000;" vertex="1" parent="1">
                    <mxGeometry x="170" y="260" width="170" height="60" as="geometry"/>
                </mxCell>
                <mxCell id="19" value="&lt;span style=&quot;font-size: 17px;&quot;&gt;Θ(N)&lt;/span&gt;" style="rounded=0;whiteSpace=wrap;html=1;fillColor=#FFFFFF;strokeColor=#000000;strokeWidth=2;fontSize=17;fontStyle=1;fontColor=#000000;" vertex="1" parent="1">
                    <mxGeometry x="340" y="260" width="170" height="60" as="geometry"/>
                </mxCell>
                <mxCell id="20" value="достъп до произволен елемент" style="rounded=0;whiteSpace=wrap;html=1;fillColor=#FFFFFF;strokeColor=#000000;strokeWidth=2;fontSize=17;fontStyle=1;fontColor=#000000;" vertex="1" parent="1">
                    <mxGeometry y="320" width="170" height="60" as="geometry"/>
                </mxCell>
                <mxCell id="21" value="&lt;span style=&quot;font-size: 17px;&quot;&gt;Θ(N)&lt;/span&gt;" style="rounded=0;whiteSpace=wrap;html=1;fillColor=#FFFFFF;strokeColor=#000000;strokeWidth=2;fontSize=17;fontStyle=1;fontColor=#000000;" vertex="1" parent="1">
                    <mxGeometry x="170" y="320" width="170" height="60" as="geometry"/>
                </mxCell>
                <mxCell id="22" value="&lt;span style=&quot;font-size: 17px;&quot;&gt;Θ(N)&lt;/span&gt;" style="rounded=0;whiteSpace=wrap;html=1;fillColor=#FFFFFF;strokeColor=#000000;strokeWidth=2;fontSize=17;fontStyle=1;fontColor=#000000;" vertex="1" parent="1">
                    <mxGeometry x="340" y="320" width="170" height="60" as="geometry"/>
                </mxCell>
                <mxCell id="23" value="достъп до корена" style="rounded=0;whiteSpace=wrap;html=1;fillColor=#FFFFFF;strokeColor=#000000;strokeWidth=2;fontSize=17;fontStyle=1;fontColor=#000000;" vertex="1" parent="1">
                    <mxGeometry y="380" width="170" height="60" as="geometry"/>
                </mxCell>
                <mxCell id="24" value="&lt;span style=&quot;font-size: 17px;&quot;&gt;Θ(1)&lt;/span&gt;" style="rounded=0;whiteSpace=wrap;html=1;fillColor=#FFFFFF;strokeColor=#000000;strokeWidth=2;fontSize=17;fontStyle=1;fontColor=#000000;" vertex="1" parent="1">
                    <mxGeometry x="170" y="380" width="170" height="60" as="geometry"/>
                </mxCell>
                <mxCell id="25" value="&lt;span style=&quot;font-size: 17px;&quot;&gt;Θ(1)&lt;/span&gt;" style="rounded=0;whiteSpace=wrap;html=1;fillColor=#FFFFFF;strokeColor=#000000;strokeWidth=2;fontSize=17;fontStyle=1;fontColor=#000000;" vertex="1" parent="1">
                    <mxGeometry x="340" y="380" width="170" height="60" as="geometry"/>
                </mxCell>
            </root>
        </mxGraphModel>
    </diagram>
</mxfile>